<?xml version="1.0" encoding="utf-8"?>
<!-- Generator: Adobe Illustrator 20.1.0, SVG Export Plug-In . SVG Version: 6.00 Build 0)  -->
<svg version="1.1" id="Layer_1" xmlns="http://www.w3.org/2000/svg" xmlns:xlink="http://www.w3.org/1999/xlink" x="0px" y="0px"
	 viewBox="0 0 60 60" style="enable-background:new 0 0 60 60;" xml:space="preserve">
<style type="text/css">
	.st0{fill:#5793C9;}
	.st1{fill:#FFFFFF;}
</style>
<title>Group</title>
<desc>Created with Sketch.</desc>
<g id="Symbols">
	<g id="logo_x2F_nak">
		<g id="Group">
			<polygon id="Fill-1" class="st0" points="0,60 60,60 60,0 0,0 			"/>
			<g id="Group-12" transform="translate(11.578947, 3.890842)">
				<path id="Fill-2" class="st1" d="M15.8,33.1c-0.1,0-0.3-0.1-0.3-0.2l-4.1-14.5c0-0.2,0.1-0.4,0.2-0.4c0.2-0.1,0.4,0.1,0.4,0.2
					l4.1,14.5C16.1,32.8,16,33,15.8,33.1C15.8,33.1,15.8,33.1,15.8,33.1 M21.6,33.1C21.5,33.1,21.5,33.1,21.6,33.1
					c-0.3-0.1-0.4-0.2-0.3-0.4l4.1-14.5c0-0.2,0.2-0.3,0.4-0.2c0.2,0,0.3,0.2,0.2,0.4l-4.1,14.5C21.8,33,21.7,33.1,21.6,33.1
					 M24.1,34.4c-0.1,0-0.1,0-0.2,0c-0.2-0.1-0.2-0.3-0.1-0.5L31.1,22c0.1-0.2,0.3-0.2,0.5-0.1c0.2,0.1,0.2,0.3,0.1,0.5l-7.3,11.9
					C24.3,34.3,24.2,34.4,24.1,34.4 M13.2,34.4c-0.1,0-0.2-0.1-0.3-0.2L5.7,22.3c-0.1-0.2,0-0.4,0.1-0.5c0.2-0.1,0.4,0,0.5,0.1
					l7.3,11.9c0.1,0.2,0,0.4-0.1,0.5C13.3,34.4,13.3,34.4,13.2,34.4 M26.1,36.4c-0.1,0-0.2,0-0.2-0.1c-0.1-0.1-0.1-0.3,0-0.5l9-8.2
					c0.1-0.1,0.3-0.1,0.5,0c0.1,0.1,0.1,0.3,0,0.5l-9,8.2C26.3,36.4,26.2,36.4,26.1,36.4 M11.2,36.4c-0.1,0-0.2,0-0.2-0.1l-9-8.2
					c-0.1-0.1-0.1-0.3,0-0.5c0.1-0.1,0.3-0.1,0.5,0l9,8.2c0.1,0.1,0.1,0.3,0,0.5C11.4,36.4,11.3,36.4,11.2,36.4 M27.4,39
					c-0.1,0-0.2-0.1-0.3-0.2c-0.1-0.2,0-0.4,0.2-0.4l9-4.4c0.2-0.1,0.4,0,0.4,0.2c0.1,0.2,0,0.4-0.2,0.4l-9,4.4
					C27.5,39,27.5,39,27.4,39 M9.9,39c0,0-0.1,0-0.1,0l-9-4.4c-0.2-0.1-0.2-0.3-0.2-0.4C0.7,34,0.9,33.9,1,34l9,4.4
					c0.2,0.1,0.2,0.3,0.2,0.4C10.1,38.9,10,39,9.9,39 M27.9,41.8c-0.2,0-0.3-0.1-0.3-0.3c0-0.2,0.1-0.3,0.3-0.4l7.5-1.1
					c0.2,0,0.3,0.1,0.4,0.3c0,0.2-0.1,0.3-0.3,0.4L27.9,41.8C27.9,41.8,27.9,41.8,27.9,41.8 M9.4,41.9C9.4,41.9,9.4,41.9,9.4,41.9
					l-7.6-1.1c-0.2,0-0.3-0.2-0.3-0.4c0-0.2,0.2-0.3,0.4-0.3l7.5,1.1c0.2,0,0.3,0.2,0.3,0.4C9.7,41.7,9.6,41.9,9.4,41.9"/>
				<path id="Fill-4" class="st1" d="M17.6,42.6h2.1v-32c0-0.2,0.2-0.4,0.5-0.4l7.8,0V8h-7.8c-0.2,0-0.5-0.2-0.5-0.4V1.7h-2.1l0,5.8
					c0,0.2-0.2,0.4-0.4,0.4H9.4v2.1h7.8c0.3,0,0.5,0.2,0.5,0.4V42.6z M19.9,43.2h-2.5c-0.2,0-0.4-0.2-0.4-0.4V10.8H9.2
					c-0.2,0-0.4-0.2-0.4-0.5V7.8c0-0.2,0.2-0.4,0.4-0.4h7.8l0-5.8c0-0.2,0.2-0.4,0.5-0.4h2.5c0.3,0,0.4,0.2,0.4,0.4v5.8h7.8
					c0.2,0,0.5,0.2,0.5,0.4v2.5c0,0.2-0.2,0.5-0.5,0.5l-7.8,0v32C20.4,43,20.2,43.2,19.9,43.2z"/>
				<path id="Fill-6" class="st1" d="M30.3,46.5l-4.3,0c-0.2,0.3-0.4,0.6-0.7,0.8H12c-0.2-0.3-0.5-0.6-0.7-0.9l-4.3,0
					c-0.4,0-0.8,0.3-0.8,0.8C6.3,47.6,6.6,48,7,48l3.9,0c0,0,0,0,0,0h13.8h5.6c0.4,0,0.8-0.3,0.8-0.8C31.1,46.8,30.7,46.5,30.3,46.5
					"/>
				<path id="Fill-8" class="st1" d="M14.9,49.5h-3.2c-0.4,0-0.8,0.3-0.8,0.8c0,0.2,0.1,0.4,0.2,0.5c0.1,0.1,0.3,0.2,0.5,0.2h13.9
					c0.2,0,0.4-0.1,0.5-0.2c0.1-0.1,0.2-0.3,0.2-0.5c0-0.4-0.3-0.8-0.8-0.8h-3.2c-1.1,0.5-2.4,0.8-3.8,0.8
					C17.3,50.4,16,50.1,14.9,49.5"/>
				<path id="Fill-10" class="st1" d="M32.9,43.4h-5.6c-0.1,0.3-0.1,0.6-0.2,0.8H10.3c-0.1-0.3-0.2-0.6-0.2-0.8H4.4
					c-0.4,0-0.8,0.3-0.8,0.8s0.3,0.8,0.8,0.8l5.8,0h0h16.6v0l6.1,0c0.4,0,0.8-0.3,0.8-0.8S33.3,43.4,32.9,43.4"/>
			</g>
		</g>
	</g>
</g>
</svg>
